<svg width="32" height="32" viewBox="0 0 32 32" fill="none" xmlns="http://www.w3.org/2000/svg">
<path d="M16 32C24.8366 32 32 24.8366 32 16C32 7.16344 24.8366 0 16 0C7.16344 0 0 7.16344 0 16C0 24.8366 7.16344 32 16 32Z" fill="#303757"/>
<mask id="mask0" mask-type="alpha" maskUnits="userSpaceOnUse" x="5" y="7" width="22" height="19">
<path d="M12.7579 7.81563C12.7937 7.79956 12.8325 7.79126 12.8717 7.79126H19.127C19.1663 7.79126 19.2051 7.79956 19.2409 7.81563L23.4543 9.70532C23.5034 9.72736 23.5451 9.76317 23.5743 9.80843L25.9759 13.533C26.0416 13.635 26.0337 13.7679 25.9563 13.8613L16.2137 25.6196C16.1024 25.754 15.8964 25.754 15.7851 25.6196L6.04251 13.8613C5.96507 13.7679 5.95715 13.635 6.02292 13.533L8.42449 9.80843C8.45367 9.76317 8.49535 9.72736 8.54448 9.70532L12.7579 7.81563Z" fill="#C4C4C4"/>
</mask>
<g mask="url(#mask0)">
<path d="M26.086 12.1739H5.91211V25.8782H26.086V12.1739Z" fill="#47A9F1"/>
<path d="M26.086 7.79126H5.91211V13.0087H26.086V7.79126Z" fill="#7EC7FF"/>
<path d="M15.9999 11.5478L19.826 16.6261H12.1738L15.9999 11.5478Z" fill="#75C1FF"/>
<path d="M15.9999 28.5913L19.826 16.6261H12.1738L15.9999 28.5913Z" fill="#8DCCFC"/>
<path d="M15.9994 11.5478L9.2168 10.5391L12.1733 16.626L15.9994 11.5478Z" fill="#BFE2F7"/>
<path d="M5.91211 13.7043L9.21646 10.5391L12.173 16.626L5.91211 13.7043Z" fill="#87CBFF"/>
<path d="M5.91211 13.7043L9.21646 10.5391L8.48602 9.73907L5.91211 13.7043Z" fill="#47A9F1"/>
<path d="M15.9985 11.5478L22.7811 10.5391L19.8246 16.626L15.9985 11.5478Z" fill="#4BAEF7"/>
<path d="M26.086 13.7043L22.7817 10.5391L19.8252 16.626L26.086 13.7043Z" fill="#6EBEFF"/>
<path d="M26.0858 13.7043L22.7815 10.5391L23.5119 9.73907L26.0858 13.7043Z" fill="#389BE3"/>
</g>
</svg>
